<svg xmlns="http://www.w3.org/2000/svg" xmlns:xlink="http://www.w3.org/1999/xlink" id="processonSvg1000" viewBox="217.0 534.0 689.0 1623.5" width="689.0" height="1623.5"><defs id="ProcessOnDefs1001"><marker id="ProcessOnMarker1093" markerUnits="userSpaceOnUse" orient="auto" markerWidth="16.23606797749979" markerHeight="10.550836550532098" viewBox="-1.0 -1.3763819204711736 16.23606797749979 10.550836550532098" refX="-1.0" refY="3.8990363547948754"><path id="ProcessOnPath1094" d="M12.0 3.8990363547948754L0.0 7.798072709589751V0.0Z" stroke="#323232" stroke-width="2.0" fill="#323232" transform="matrix(1.0,0.0,0.0,1.0,0.0,0.0)"/></marker><marker id="ProcessOnMarker1100" markerUnits="userSpaceOnUse" orient="auto" markerWidth="16.23606797749979" markerHeight="10.550836550532098" viewBox="-1.0 -1.3763819204711736 16.23606797749979 10.550836550532098" refX="-1.0" refY="3.8990363547948754"><path id="ProcessOnPath1101" d="M12.0 3.8990363547948754L0.0 7.798072709589751V0.0Z" stroke="#323232" stroke-width="2.0" fill="#323232" transform="matrix(1.0,0.0,0.0,1.0,0.0,0.0)"/></marker><marker id="ProcessOnMarker1107" markerUnits="userSpaceOnUse" orient="auto" markerWidth="16.23606797749979" markerHeight="10.550836550532098" viewBox="-1.0 -1.3763819204711736 16.23606797749979 10.550836550532098" refX="-1.0" refY="3.8990363547948754"><path id="ProcessOnPath1108" d="M12.0 3.8990363547948754L0.0 7.798072709589751V0.0Z" stroke="#323232" stroke-width="2.0" fill="#323232" transform="matrix(1.0,0.0,0.0,1.0,0.0,0.0)"/></marker><marker id="ProcessOnMarker1114" markerUnits="userSpaceOnUse" orient="auto" markerWidth="16.23606797749979" markerHeight="10.550836550532098" viewBox="-1.0 -1.3763819204711736 16.23606797749979 10.550836550532098" refX="-1.0" refY="3.8990363547948754"><path id="ProcessOnPath1115" d="M12.0 3.8990363547948754L0.0 7.798072709589751V0.0Z" stroke="#323232" stroke-width="2.0" fill="#323232" transform="matrix(1.0,0.0,0.0,1.0,0.0,0.0)"/></marker><marker id="ProcessOnMarker1121" markerUnits="userSpaceOnUse" orient="auto" markerWidth="16.23606797749979" markerHeight="10.550836550532098" viewBox="-1.0 -1.3763819204711736 16.23606797749979 10.550836550532098" refX="-1.0" refY="3.8990363547948754"><path id="ProcessOnPath1122" d="M12.0 3.8990363547948754L0.0 7.798072709589751V0.0Z" stroke="#323232" stroke-width="2.0" fill="#323232" transform="matrix(1.0,0.0,0.0,1.0,0.0,0.0)"/></marker><marker id="ProcessOnMarker1128" markerUnits="userSpaceOnUse" orient="auto" markerWidth="16.23606797749979" markerHeight="10.550836550532098" viewBox="-1.0 -1.3763819204711736 16.23606797749979 10.550836550532098" refX="-1.0" refY="3.8990363547948754"><path id="ProcessOnPath1129" d="M12.0 3.8990363547948754L0.0 7.798072709589751V0.0Z" stroke="#323232" stroke-width="2.0" fill="#323232" transform="matrix(1.0,0.0,0.0,1.0,0.0,0.0)"/></marker><marker id="ProcessOnMarker1132" markerUnits="userSpaceOnUse" orient="auto" markerWidth="16.23606797749979" markerHeight="10.550836550532098" viewBox="-1.0 -1.3763819204711736 16.23606797749979 10.550836550532098" refX="-1.0" refY="3.8990363547948754"><path id="ProcessOnPath1133" d="M12.0 3.8990363547948754L0.0 7.798072709589751V0.0Z" stroke="#323232" stroke-width="2.0" fill="#323232" transform="matrix(1.0,0.0,0.0,1.0,0.0,0.0)"/></marker><marker id="ProcessOnMarker1136" markerUnits="userSpaceOnUse" orient="auto" markerWidth="16.23606797749979" markerHeight="10.550836550532098" viewBox="-1.0 -1.3763819204711736 16.23606797749979 10.550836550532098" refX="-1.0" refY="3.8990363547948754"><path id="ProcessOnPath1137" d="M12.0 3.8990363547948754L0.0 7.798072709589751V0.0Z" stroke="#323232" stroke-width="2.0" fill="#323232" transform="matrix(1.0,0.0,0.0,1.0,0.0,0.0)"/></marker><marker id="ProcessOnMarker1184" markerUnits="userSpaceOnUse" orient="auto" markerWidth="16.23606797749979" markerHeight="10.550836550532098" viewBox="-1.0 -1.3763819204711736 16.23606797749979 10.550836550532098" refX="-1.0" refY="3.8990363547948754"><path id="ProcessOnPath1185" d="M12.0 3.8990363547948754L0.0 7.798072709589751V0.0Z" stroke="#323232" stroke-width="2.0" fill="#323232" transform="matrix(1.0,0.0,0.0,1.0,0.0,0.0)"/></marker><marker id="ProcessOnMarker1188" markerUnits="userSpaceOnUse" orient="auto" markerWidth="16.23606797749979" markerHeight="10.550836550532098" viewBox="-1.0 -1.3763819204711736 16.23606797749979 10.550836550532098" refX="-1.0" refY="3.8990363547948754"><path id="ProcessOnPath1189" d="M12.0 3.8990363547948754L0.0 7.798072709589751V0.0Z" stroke="#323232" stroke-width="2.0" fill="#323232" transform="matrix(1.0,0.0,0.0,1.0,0.0,0.0)"/></marker><marker id="ProcessOnMarker1192" markerUnits="userSpaceOnUse" orient="auto" markerWidth="16.23606797749979" markerHeight="10.550836550532098" viewBox="-1.0 -1.3763819204711736 16.23606797749979 10.550836550532098" refX="-1.0" refY="3.8990363547948754"><path id="ProcessOnPath1193" d="M12.0 3.8990363547948754L0.0 7.798072709589751V0.0Z" stroke="#323232" stroke-width="2.0" fill="#323232" transform="matrix(1.0,0.0,0.0,1.0,0.0,0.0)"/></marker><marker id="ProcessOnMarker1196" markerUnits="userSpaceOnUse" orient="auto" markerWidth="16.23606797749979" markerHeight="10.550836550532098" viewBox="-1.0 -1.3763819204711736 16.23606797749979 10.550836550532098" refX="-1.0" refY="3.8990363547948754"><path id="ProcessOnPath1197" d="M12.0 3.8990363547948754L0.0 7.798072709589751V0.0Z" stroke="#323232" stroke-width="2.0" fill="#323232" transform="matrix(1.0,0.0,0.0,1.0,0.0,0.0)"/></marker><marker id="ProcessOnMarker1200" markerUnits="userSpaceOnUse" orient="auto" markerWidth="16.23606797749979" markerHeight="10.550836550532098" viewBox="-1.0 -1.3763819204711736 16.23606797749979 10.550836550532098" refX="-1.0" refY="3.8990363547948754"><path id="ProcessOnPath1201" d="M12.0 3.8990363547948754L0.0 7.798072709589751V0.0Z" stroke="#323232" stroke-width="2.0" fill="#323232" transform="matrix(1.0,0.0,0.0,1.0,0.0,0.0)"/></marker><marker id="ProcessOnMarker1204" markerUnits="userSpaceOnUse" orient="auto" markerWidth="16.23606797749979" markerHeight="10.550836550532098" viewBox="-1.0 -1.3763819204711736 16.23606797749979 10.550836550532098" refX="-1.0" refY="3.8990363547948754"><path id="ProcessOnPath1205" d="M12.0 3.8990363547948754L0.0 7.798072709589751V0.0Z" stroke="#323232" stroke-width="2.0" fill="#323232" transform="matrix(1.0,0.0,0.0,1.0,0.0,0.0)"/></marker><marker id="ProcessOnMarker1208" markerUnits="userSpaceOnUse" orient="auto" markerWidth="16.23606797749979" markerHeight="10.550836550532098" viewBox="-1.0 -1.3763819204711736 16.23606797749979 10.550836550532098" refX="-1.0" refY="3.8990363547948754"><path id="ProcessOnPath1209" d="M12.0 3.8990363547948754L0.0 7.798072709589751V0.0Z" stroke="#323232" stroke-width="2.0" fill="#323232" transform="matrix(1.0,0.0,0.0,1.0,0.0,0.0)"/></marker><marker id="ProcessOnMarker1212" markerUnits="userSpaceOnUse" orient="auto" markerWidth="16.23606797749979" markerHeight="10.550836550532098" viewBox="-1.0 -1.3763819204711736 16.23606797749979 10.550836550532098" refX="-1.0" refY="3.8990363547948754"><path id="ProcessOnPath1213" d="M12.0 3.8990363547948754L0.0 7.798072709589751V0.0Z" stroke="#323232" stroke-width="2.0" fill="#323232" transform="matrix(1.0,0.0,0.0,1.0,0.0,0.0)"/></marker><marker id="ProcessOnMarker1216" markerUnits="userSpaceOnUse" orient="auto" markerWidth="16.23606797749979" markerHeight="10.550836550532098" viewBox="-1.0 -1.3763819204711736 16.23606797749979 10.550836550532098" refX="-1.0" refY="3.8990363547948754"><path id="ProcessOnPath1217" d="M12.0 3.8990363547948754L0.0 7.798072709589751V0.0Z" stroke="#323232" stroke-width="2.0" fill="#323232" transform="matrix(1.0,0.0,0.0,1.0,0.0,0.0)"/></marker><marker id="ProcessOnMarker1220" markerUnits="userSpaceOnUse" orient="auto" markerWidth="16.23606797749979" markerHeight="10.550836550532098" viewBox="-1.0 -1.3763819204711736 16.23606797749979 10.550836550532098" refX="-1.0" refY="3.8990363547948754"><path id="ProcessOnPath1221" d="M12.0 3.8990363547948754L0.0 7.798072709589751V0.0Z" stroke="#323232" stroke-width="2.0" fill="#323232" transform="matrix(1.0,0.0,0.0,1.0,0.0,0.0)"/></marker><marker id="ProcessOnMarker1224" markerUnits="userSpaceOnUse" orient="auto" markerWidth="16.23606797749979" markerHeight="10.550836550532098" viewBox="-1.0 -1.3763819204711736 16.23606797749979 10.550836550532098" refX="-1.0" refY="3.8990363547948754"><path id="ProcessOnPath1225" d="M12.0 3.8990363547948754L0.0 7.798072709589751V0.0Z" stroke="#323232" stroke-width="2.0" fill="#323232" transform="matrix(1.0,0.0,0.0,1.0,0.0,0.0)"/></marker><marker id="ProcessOnMarker1228" markerUnits="userSpaceOnUse" orient="auto" markerWidth="16.23606797749979" markerHeight="10.550836550532098" viewBox="-1.0 -1.3763819204711736 16.23606797749979 10.550836550532098" refX="-1.0" refY="3.8990363547948754"><path id="ProcessOnPath1229" d="M12.0 3.8990363547948754L0.0 7.798072709589751V0.0Z" stroke="#323232" stroke-width="2.0" fill="#323232" transform="matrix(1.0,0.0,0.0,1.0,0.0,0.0)"/></marker><marker id="ProcessOnMarker1232" markerUnits="userSpaceOnUse" orient="auto" markerWidth="16.23606797749979" markerHeight="10.550836550532098" viewBox="-1.0 -1.3763819204711736 16.23606797749979 10.550836550532098" refX="-1.0" refY="3.8990363547948754"><path id="ProcessOnPath1233" d="M12.0 3.8990363547948754L0.0 7.798072709589751V0.0Z" stroke="#323232" stroke-width="2.0" fill="#323232" transform="matrix(1.0,0.0,0.0,1.0,0.0,0.0)"/></marker><marker id="ProcessOnMarker1239" markerUnits="userSpaceOnUse" orient="auto" markerWidth="16.23606797749979" markerHeight="10.550836550532098" viewBox="-1.0 -1.3763819204711736 16.23606797749979 10.550836550532098" refX="-1.0" refY="3.8990363547948754"><path id="ProcessOnPath1240" d="M12.0 3.8990363547948754L0.0 7.798072709589751V0.0Z" stroke="#323232" stroke-width="2.0" fill="#323232" transform="matrix(1.0,0.0,0.0,1.0,0.0,0.0)"/></marker><marker id="ProcessOnMarker1243" markerUnits="userSpaceOnUse" orient="auto" markerWidth="16.23606797749979" markerHeight="10.550836550532098" viewBox="-1.0 -1.3763819204711736 16.23606797749979 10.550836550532098" refX="-1.0" refY="3.8990363547948754"><path id="ProcessOnPath1244" d="M12.0 3.8990363547948754L0.0 7.798072709589751V0.0Z" stroke="#323232" stroke-width="2.0" fill="#323232" transform="matrix(1.0,0.0,0.0,1.0,0.0,0.0)"/></marker><marker id="ProcessOnMarker1247" markerUnits="userSpaceOnUse" orient="auto" markerWidth="16.23606797749979" markerHeight="10.550836550532098" viewBox="-1.0 -1.3763819204711736 16.23606797749979 10.550836550532098" refX="-1.0" refY="3.8990363547948754"><path id="ProcessOnPath1248" d="M12.0 3.8990363547948754L0.0 7.798072709589751V0.0Z" stroke="#323232" stroke-width="2.0" fill="#323232" transform="matrix(1.0,0.0,0.0,1.0,0.0,0.0)"/></marker><marker id="ProcessOnMarker1254" markerUnits="userSpaceOnUse" orient="auto" markerWidth="16.23606797749979" markerHeight="10.550836550532098" viewBox="-1.0 -1.3763819204711736 16.23606797749979 10.550836550532098" refX="-1.0" refY="3.8990363547948754"><path id="ProcessOnPath1255" d="M12.0 3.8990363547948754L0.0 7.798072709589751V0.0Z" stroke="#323232" stroke-width="2.0" fill="#323232" transform="matrix(1.0,0.0,0.0,1.0,0.0,0.0)"/></marker><marker id="ProcessOnMarker1261" markerUnits="userSpaceOnUse" orient="auto" markerWidth="16.23606797749979" markerHeight="10.550836550532098" viewBox="-1.0 -1.3763819204711736 16.23606797749979 10.550836550532098" refX="-1.0" refY="3.8990363547948754"><path id="ProcessOnPath1262" d="M12.0 3.8990363547948754L0.0 7.798072709589751V0.0Z" stroke="#323232" stroke-width="2.0" fill="#323232" transform="matrix(1.0,0.0,0.0,1.0,0.0,0.0)"/></marker><marker id="ProcessOnMarker1265" markerUnits="userSpaceOnUse" orient="auto" markerWidth="16.23606797749979" markerHeight="10.550836550532098" viewBox="-1.0 -1.3763819204711736 16.23606797749979 10.550836550532098" refX="-1.0" refY="3.8990363547948754"><path id="ProcessOnPath1266" d="M12.0 3.8990363547948754L0.0 7.798072709589751V0.0Z" stroke="#323232" stroke-width="2.0" fill="#323232" transform="matrix(1.0,0.0,0.0,1.0,0.0,0.0)"/></marker><marker id="ProcessOnMarker1272" markerUnits="userSpaceOnUse" orient="auto" markerWidth="16.23606797749979" markerHeight="10.550836550532098" viewBox="-1.0 -1.3763819204711736 16.23606797749979 10.550836550532098" refX="-1.0" refY="3.8990363547948754"><path id="ProcessOnPath1273" d="M12.0 3.8990363547948754L0.0 7.798072709589751V0.0Z" stroke="#323232" stroke-width="2.0" fill="#323232" transform="matrix(1.0,0.0,0.0,1.0,0.0,0.0)"/></marker><marker id="ProcessOnMarker1279" markerUnits="userSpaceOnUse" orient="auto" markerWidth="16.23606797749979" markerHeight="10.550836550532098" viewBox="-1.0 -1.3763819204711736 16.23606797749979 10.550836550532098" refX="-1.0" refY="3.8990363547948754"><path id="ProcessOnPath1280" d="M12.0 3.8990363547948754L0.0 7.798072709589751V0.0Z" stroke="#323232" stroke-width="2.0" fill="#323232" transform="matrix(1.0,0.0,0.0,1.0,0.0,0.0)"/></marker><marker id="ProcessOnMarker1283" markerUnits="userSpaceOnUse" orient="auto" markerWidth="16.23606797749979" markerHeight="10.550836550532098" viewBox="-1.0 -1.3763819204711736 16.23606797749979 10.550836550532098" refX="-1.0" refY="3.8990363547948754"><path id="ProcessOnPath1284" d="M12.0 3.8990363547948754L0.0 7.798072709589751V0.0Z" stroke="#ff3333" stroke-width="2.0" fill="#ff3333" transform="matrix(1.0,0.0,0.0,1.0,0.0,0.0)"/></marker><marker id="ProcessOnMarker1287" markerUnits="userSpaceOnUse" orient="auto" markerWidth="16.23606797749979" markerHeight="10.550836550532098" viewBox="-1.0 -1.3763819204711736 16.23606797749979 10.550836550532098" refX="-1.0" refY="3.8990363547948754"><path id="ProcessOnPath1288" d="M12.0 3.8990363547948754L0.0 7.798072709589751V0.0Z" stroke="#3333ff" stroke-width="2.0" fill="#3333ff" transform="matrix(1.0,0.0,0.0,1.0,0.0,0.0)"/></marker><marker id="ProcessOnMarker1291" markerUnits="userSpaceOnUse" orient="auto" markerWidth="16.23606797749979" markerHeight="10.550836550532098" viewBox="-1.0 -1.3763819204711736 16.23606797749979 10.550836550532098" refX="-1.0" refY="3.8990363547948754"><path id="ProcessOnPath1292" d="M12.0 3.8990363547948754L0.0 7.798072709589751V0.0Z" stroke="#cc00cc" stroke-width="2.0" fill="#cc00cc" transform="matrix(1.0,0.0,0.0,1.0,0.0,0.0)"/></marker><marker id="ProcessOnMarker1295" markerUnits="userSpaceOnUse" orient="auto" markerWidth="16.23606797749979" markerHeight="10.550836550532098" viewBox="-1.0 -1.3763819204711736 16.23606797749979 10.550836550532098" refX="-1.0" refY="3.8990363547948754"><path id="ProcessOnPath1296" d="M12.0 3.8990363547948754L0.0 7.798072709589751V0.0Z" stroke="#ff3333" stroke-width="2.0" fill="#ff3333" transform="matrix(1.0,0.0,0.0,1.0,0.0,0.0)"/></marker><marker id="ProcessOnMarker1299" markerUnits="userSpaceOnUse" orient="auto" markerWidth="16.23606797749979" markerHeight="10.550836550532098" viewBox="-1.0 -1.3763819204711736 16.23606797749979 10.550836550532098" refX="-1.0" refY="3.8990363547948754"><path id="ProcessOnPath1300" d="M12.0 3.8990363547948754L0.0 7.798072709589751V0.0Z" stroke="#3333ff" stroke-width="2.0" fill="#3333ff" transform="matrix(1.0,0.0,0.0,1.0,0.0,0.0)"/></marker><marker id="ProcessOnMarker1307" markerUnits="userSpaceOnUse" orient="auto" markerWidth="16.23606797749979" markerHeight="10.550836550532098" viewBox="-1.0 -1.3763819204711736 16.23606797749979 10.550836550532098" refX="-1.0" refY="3.8990363547948754"><path id="ProcessOnPath1308" d="M12.0 3.8990363547948754L0.0 7.798072709589751V0.0Z" stroke="#323232" stroke-width="2.0" fill="#323232" transform="matrix(1.0,0.0,0.0,1.0,0.0,0.0)"/></marker><marker id="ProcessOnMarker1311" markerUnits="userSpaceOnUse" orient="auto" markerWidth="16.23606797749979" markerHeight="10.550836550532098" viewBox="-1.0 -1.3763819204711736 16.23606797749979 10.550836550532098" refX="-1.0" refY="3.8990363547948754"><path id="ProcessOnPath1312" d="M12.0 3.8990363547948754L0.0 7.798072709589751V0.0Z" stroke="#323232" stroke-width="2.0" fill="#323232" transform="matrix(1.0,0.0,0.0,1.0,0.0,0.0)"/></marker><marker id="ProcessOnMarker1315" markerUnits="userSpaceOnUse" orient="auto" markerWidth="16.23606797749979" markerHeight="10.550836550532098" viewBox="-1.0 -1.3763819204711736 16.23606797749979 10.550836550532098" refX="-1.0" refY="3.8990363547948754"><path id="ProcessOnPath1316" d="M12.0 3.8990363547948754L0.0 7.798072709589751V0.0Z" stroke="#cc00cc" stroke-width="2.0" fill="#cc00cc" transform="matrix(1.0,0.0,0.0,1.0,0.0,0.0)"/></marker></defs><g id="ProcessOnG1002"><path id="ProcessOnPath1003" d="M217.0 534.0H906.0V2157.5H217.0V534.0Z" fill="#ffffff"/><g id="ProcessOnG1004"><g id="ProcessOnG1005" transform="matrix(1.0,0.0,0.0,1.0,333.25,554.0)" opacity="1.0"><path id="ProcessOnPath1006" d="M10.5 0.0L131.5 0.0C145.5 0.0 145.5 31.5 131.5 31.5L10.5 31.5C-3.5 31.5 -3.5 0.0 10.5 0.0Z" stroke="#323232" stroke-width="2.0" stroke-dasharray="none" fill="#ffffff"/><g id="ProcessOnG1007" transform="matrix(1.0,0.0,0.0,1.0,10.0,7.625)"><text id="ProcessOnText1008" fill="#000000" font-size="13" x="60.0" y="13.325" font-family="Arial" font-weight="normal" font-style="normal" text-decoration="none" family="Arial" text-anchor="middle" size="13">开始</text></g></g><g id="ProcessOnG1009" transform="matrix(1.0,0.0,0.0,1.0,333.25,609.0)" opacity="1.0"><path id="ProcessOnPath1010" d="M0.0 0.0L142.0 0.0L142.0 32.0L0.0 32.0Z" stroke="#323232" stroke-width="2.0" stroke-dasharray="none" fill="#ffffff"/><g id="ProcessOnG1011" transform="matrix(1.0,0.0,0.0,1.0,10.0,7.875)"><text id="ProcessOnText1012" fill="#323232" font-size="13" x="60.0" y="13.325" font-family="Arial" font-weight="normal" font-style="normal" text-decoration="none" family="Arial" text-anchor="middle" size="13">DS指定数据段</text></g></g><g id="ProcessOnG1013" transform="matrix(1.0,0.0,0.0,1.0,333.25,665.0)" opacity="1.0"><path id="ProcessOnPath1014" d="M0.0 0.0L142.0 0.0L142.0 32.0L0.0 32.0Z" stroke="#323232" stroke-width="2.0" stroke-dasharray="none" fill="#ffffff"/><g id="ProcessOnG1015" transform="matrix(1.0,0.0,0.0,1.0,10.0,7.875)"><text id="ProcessOnText1016" fill="#323232" font-size="13" x="60.0" y="13.325" font-family="Arial" font-weight="normal" font-style="normal" text-decoration="none" family="Arial" text-anchor="middle" size="13">BL, BH, CH赋为0</text></g></g><g id="ProcessOnG1017" transform="matrix(1.0,0.0,0.0,1.0,333.25,721.0)" opacity="1.0"><path id="ProcessOnPath1018" d="M0.0 0.0L142.0 0.0L142.0 32.0L0.0 32.0Z" stroke="#323232" stroke-width="2.0" stroke-dasharray="none" fill="#ffffff"/><g id="ProcessOnG1019" transform="matrix(1.0,0.0,0.0,1.0,10.0,7.875)"><text id="ProcessOnText1020" fill="#323232" font-size="13" x="60.0" y="13.325" font-family="Arial" font-weight="normal" font-style="normal" text-decoration="none" family="Arial" text-anchor="middle" size="13">显示DISMESS</text></g></g><g id="ProcessOnG1021" transform="matrix(1.0,0.0,0.0,1.0,325.5,778.0)" opacity="1.0"><path id="ProcessOnPath1022" d="M0.0 0.0L157.5 0.0L157.5 32.0L0.0 32.0Z" stroke="#323232" stroke-width="2.0" stroke-dasharray="none" fill="#ffffff"/><g id="ProcessOnG1023" transform="matrix(1.0,0.0,0.0,1.0,10.0,7.875)"><text id="ProcessOnText1024" fill="#323232" font-size="13" x="67.75" y="13.325" font-family="Arial" font-weight="normal" font-style="normal" text-decoration="none" family="Arial" text-anchor="middle" size="13">DX存MAXSTRING地址</text></g></g><g id="ProcessOnG1025" transform="matrix(1.0,0.0,0.0,1.0,319.875,835.0)" opacity="1.0"><path id="ProcessOnPath1026" d="M0.0 0.0L168.75 0.0L168.75 31.0L0.0 31.0Z" stroke="#323232" stroke-width="2.0" stroke-dasharray="none" fill="#ffffff"/><g id="ProcessOnG1027" transform="matrix(1.0,0.0,0.0,1.0,10.0,7.375)"><text id="ProcessOnText1028" fill="#323232" font-size="13" x="73.375" y="13.325" font-family="Arial" font-weight="normal" font-style="normal" text-decoration="none" family="Arial" text-anchor="middle" size="13">输入字符串到DX所指地址</text></g></g><g id="ProcessOnG1029" transform="matrix(1.0,0.0,0.0,1.0,288.375,892.0)" opacity="1.0"><path id="ProcessOnPath1030" d="M0.0 0.0L231.75 0.0L231.75 32.0L0.0 32.0Z" stroke="#323232" stroke-width="2.0" stroke-dasharray="none" fill="#ffffff"/><g id="ProcessOnG1031" transform="matrix(1.0,0.0,0.0,1.0,10.0,-0.25)"><text id="ProcessOnText1032" fill="#323232" font-size="13" x="104.875" y="13.325" font-family="Arial" font-weight="normal" font-style="normal" text-decoration="none" family="Arial" text-anchor="middle" size="13">DX存{0, INACT}</text><text id="ProcessOnText1033" fill="#323232" font-size="13" x="104.875" y="29.575" font-family="Arial" font-weight="normal" font-style="normal" text-decoration="none" family="Arial" text-anchor="middle" size="13">（INACT在数据段紧跟MAXSTRING)</text></g></g><g id="ProcessOnG1034" transform="matrix(1.0,0.0,0.0,1.0,333.25,949.0)" opacity="1.0"><path id="ProcessOnPath1035" d="M0.0 0.0L142.0 0.0L142.0 32.0L0.0 32.0Z" stroke="#323232" stroke-width="2.0" stroke-dasharray="none" fill="#ffffff"/><g id="ProcessOnG1036" transform="matrix(1.0,0.0,0.0,1.0,10.0,7.875)"><text id="ProcessOnText1037" fill="#323232" font-size="13" x="60.0" y="13.325" font-family="Arial" font-weight="normal" font-style="normal" text-decoration="none" family="Arial" text-anchor="middle" size="13">DX加一</text></g></g><g id="ProcessOnG1038" transform="matrix(1.0,0.0,0.0,1.0,333.25,1006.0)" opacity="1.0"><path id="ProcessOnPath1039" d="M0.0 0.0L142.0 0.0L142.0 32.0L0.0 32.0Z" stroke="#323232" stroke-width="2.0" stroke-dasharray="none" fill="#ffffff"/><g id="ProcessOnG1040" transform="matrix(1.0,0.0,0.0,1.0,10.0,7.875)"><text id="ProcessOnText1041" fill="#323232" font-size="13" x="60.0" y="13.325" font-family="Arial" font-weight="normal" font-style="normal" text-decoration="none" family="Arial" text-anchor="middle" size="13">SI存STRING地址</text></g></g><g id="ProcessOnG1042" transform="matrix(1.0,0.0,0.0,1.0,333.25,1062.0)" opacity="1.0"><path id="ProcessOnPath1043" d="M0.0 0.0L142.0 0.0L142.0 32.0L0.0 32.0Z" stroke="#323232" stroke-width="2.0" stroke-dasharray="none" fill="#ffffff"/><g id="ProcessOnG1044" transform="matrix(1.0,0.0,0.0,1.0,10.0,7.875)"><text id="ProcessOnText1045" fill="#323232" font-size="13" x="60.0" y="13.325" font-family="Arial" font-weight="normal" font-style="normal" text-decoration="none" family="Arial" text-anchor="middle" size="13">DX减一</text></g></g><g id="ProcessOnG1046" transform="matrix(1.0,0.0,0.0,1.0,333.25,1119.0)" opacity="1.0"><path id="ProcessOnPath1047" d="M0.0 18.0L71.0 0.0L142.0 18.0L71.0 36.0L0.0 18.0Z" stroke="#323232" stroke-width="2.0" stroke-dasharray="none" fill="#ffffff"/><g id="ProcessOnG1048" transform="matrix(1.0,0.0,0.0,1.0,10.0,9.875)"><text id="ProcessOnText1049" fill="#000000" font-size="13" x="60.0" y="13.325" font-family="Arial" font-weight="normal" font-style="normal" text-decoration="none" family="Arial" text-anchor="middle" size="13">==0?</text></g></g><g id="ProcessOnG1050" transform="matrix(1.0,0.0,0.0,1.0,333.25,1180.0)" opacity="1.0"><path id="ProcessOnPath1051" d="M0.0 0.0L142.0 0.0L142.0 32.0L0.0 32.0Z" stroke="#323232" stroke-width="2.0" stroke-dasharray="none" fill="#ffffff"/><g id="ProcessOnG1052" transform="matrix(1.0,0.0,0.0,1.0,10.0,7.875)"><text id="ProcessOnText1053" fill="#323232" font-size="13" x="60.0" y="13.325" font-family="Arial" font-weight="normal" font-style="normal" text-decoration="none" family="Arial" text-anchor="middle" size="13">AL存[SI]</text></g></g><g id="ProcessOnG1054" transform="matrix(1.0,0.0,0.0,1.0,333.25,1237.0)" opacity="1.0"><path id="ProcessOnPath1055" d="M0.0 0.0L142.0 0.0L142.0 32.0L0.0 32.0Z" stroke="#323232" stroke-width="2.0" stroke-dasharray="none" fill="#ffffff"/><g id="ProcessOnG1056" transform="matrix(1.0,0.0,0.0,1.0,10.0,7.875)"><text id="ProcessOnText1057" fill="#323232" font-size="13" x="60.0" y="13.325" font-family="Arial" font-weight="normal" font-style="normal" text-decoration="none" family="Arial" text-anchor="middle" size="13">SI加一</text></g></g><g id="ProcessOnG1058" transform="matrix(1.0,0.0,0.0,1.0,333.0,1294.0)" opacity="1.0"><path id="ProcessOnPath1059" d="M0.0 18.0L71.0 0.0L142.0 18.0L71.0 36.0L0.0 18.0Z" stroke="#323232" stroke-width="2.0" stroke-dasharray="none" fill="#ffffff"/><g id="ProcessOnG1060" transform="matrix(1.0,0.0,0.0,1.0,10.0,9.875)"><text id="ProcessOnText1061" fill="#000000" font-size="13" x="60.0" y="13.325" font-family="Arial" font-weight="normal" font-style="normal" text-decoration="none" family="Arial" text-anchor="middle" size="13">'0'&gt;AL?</text></g></g><g id="ProcessOnG1062" transform="matrix(1.0,0.0,0.0,1.0,333.25,1355.0)" opacity="1.0"><path id="ProcessOnPath1063" d="M0.0 18.0L71.0 0.0L142.0 18.0L71.0 36.0L0.0 18.0Z" stroke="#323232" stroke-width="2.0" stroke-dasharray="none" fill="#ffffff"/><g id="ProcessOnG1064" transform="matrix(1.0,0.0,0.0,1.0,10.0,9.875)"><text id="ProcessOnText1065" fill="#000000" font-size="13" x="60.0" y="13.325" font-family="Arial" font-weight="normal" font-style="normal" text-decoration="none" family="Arial" text-anchor="middle" size="13">'9'&lt;AL?</text></g></g><g id="ProcessOnG1066" transform="matrix(1.0,0.0,0.0,1.0,333.25,1416.0)" opacity="1.0"><path id="ProcessOnPath1067" d="M0.0 0.0L142.0 0.0L142.0 32.0L0.0 32.0Z" stroke="#323232" stroke-width="2.0" stroke-dasharray="none" fill="#ffffff"/><g id="ProcessOnG1068" transform="matrix(1.0,0.0,0.0,1.0,10.0,7.875)"><text id="ProcessOnText1069" fill="#323232" font-size="13" x="60.0" y="13.325" font-family="Arial" font-weight="normal" font-style="normal" text-decoration="none" family="Arial" text-anchor="middle" size="13">BL加一</text></g></g><g id="ProcessOnG1070" transform="matrix(1.0,0.0,0.0,1.0,333.0,1473.0)" opacity="1.0"><path id="ProcessOnPath1071" d="M0.0 0.0L142.0 0.0L142.0 32.0L0.0 32.0Z" stroke="#323232" stroke-width="2.0" stroke-dasharray="none" fill="#ffffff"/><g id="ProcessOnG1072" transform="matrix(1.0,0.0,0.0,1.0,10.0,-0.25)"><text id="ProcessOnText1073" fill="#323232" font-size="13" x="60.0" y="13.325" font-family="Arial" font-weight="normal" font-style="normal" text-decoration="none" family="Arial" text-anchor="middle" size="13">AL转小写字母</text><text id="ProcessOnText1074" fill="#323232" font-size="13" x="60.0" y="29.575" font-family="Arial" font-weight="normal" font-style="normal" text-decoration="none" family="Arial" text-anchor="middle" size="13">(OR      AL, 20H)</text></g></g><g id="ProcessOnG1075" transform="matrix(1.0,0.0,0.0,1.0,333.0,1530.0)" opacity="1.0"><path id="ProcessOnPath1076" d="M0.0 18.0L71.0 0.0L142.0 18.0L71.0 36.0L0.0 18.0Z" stroke="#323232" stroke-width="2.0" stroke-dasharray="none" fill="#ffffff"/><g id="ProcessOnG1077" transform="matrix(1.0,0.0,0.0,1.0,10.0,9.875)"><text id="ProcessOnText1078" fill="#000000" font-size="13" x="60.0" y="13.325" font-family="Arial" font-weight="normal" font-style="normal" text-decoration="none" family="Arial" text-anchor="middle" size="13">'a'&gt;AL?</text></g></g><g id="ProcessOnG1079" transform="matrix(1.0,0.0,0.0,1.0,333.0,1590.0)" opacity="1.0"><path id="ProcessOnPath1080" d="M0.0 18.0L71.0 0.0L142.0 18.0L71.0 36.0L0.0 18.0Z" stroke="#323232" stroke-width="2.0" stroke-dasharray="none" fill="#ffffff"/><g id="ProcessOnG1081" transform="matrix(1.0,0.0,0.0,1.0,10.0,9.875)"><text id="ProcessOnText1082" fill="#000000" font-size="13" x="60.0" y="13.325" font-family="Arial" font-weight="normal" font-style="normal" text-decoration="none" family="Arial" text-anchor="middle" size="13">'z'&lt;AL?</text></g></g><g id="ProcessOnG1083" transform="matrix(1.0,0.0,0.0,1.0,333.0,1651.0)" opacity="1.0"><path id="ProcessOnPath1084" d="M0.0 0.0L142.0 0.0L142.0 32.0L0.0 32.0Z" stroke="#323232" stroke-width="2.0" stroke-dasharray="none" fill="#ffffff"/><g id="ProcessOnG1085" transform="matrix(1.0,0.0,0.0,1.0,10.0,7.875)"><text id="ProcessOnText1086" fill="#323232" font-size="13" x="60.0" y="13.325" font-family="Arial" font-weight="normal" font-style="normal" text-decoration="none" family="Arial" text-anchor="middle" size="13">BH加一</text></g></g><g id="ProcessOnG1087" transform="matrix(1.0,0.0,0.0,1.0,333.0,1708.0)" opacity="1.0"><path id="ProcessOnPath1088" d="M0.0 0.0L142.0 0.0L142.0 32.0L0.0 32.0Z" stroke="#323232" stroke-width="2.0" stroke-dasharray="none" fill="#ffffff"/><g id="ProcessOnG1089" transform="matrix(1.0,0.0,0.0,1.0,10.0,7.875)"><text id="ProcessOnText1090" fill="#323232" font-size="13" x="60.0" y="13.325" font-family="Arial" font-weight="normal" font-style="normal" text-decoration="none" family="Arial" text-anchor="middle" size="13">CH加一</text></g></g><g id="ProcessOnG1091"><path id="ProcessOnPath1092" d="M475.25 1137.0L605.5 1137.0L605.5 1781.0L491.7360679774998 1781.0" stroke="#323232" stroke-width="2.0" stroke-dasharray="none" fill="none" marker-end="url(#ProcessOnMarker1093)"/><g id="ProcessOnG1095" transform="matrix(1.0,0.0,0.0,1.0,605.5,1442.6319660112501)"><path id="ProcessOnPath1096" d="M0 0H10.0V16.25H0Z" fill="#fff" transform="matrix(1.0,0.0,0.0,1.0,-5.0,0.0)"/><text id="ProcessOnText1097" fill="#323232" font-size="13" x="0.0" y="13.325" font-family="Arial" font-weight="normal" font-style="normal" text-decoration="none" family="Arial" text-anchor="middle" size="13">是</text></g></g><g id="ProcessOnG1098"><path id="ProcessOnPath1099" d="M333.0 1312.0L242.0 1312.0L242.0 1734.9647238195898L318.6276353276565 1734.9647238195898" stroke="#323232" stroke-width="2.0" stroke-dasharray="none" fill="none" marker-end="url(#ProcessOnMarker1100)"/><g id="ProcessOnG1102" transform="matrix(1.0,0.0,0.0,1.0,242.0,1508.1711795736232)"><path id="ProcessOnPath1103" d="M0 0H10.0V16.25H0Z" fill="#fff" transform="matrix(1.0,0.0,0.0,1.0,-5.0,0.0)"/><text id="ProcessOnText1104" fill="#323232" font-size="13" x="0.0" y="13.325" font-family="Arial" font-weight="normal" font-style="normal" text-decoration="none" family="Arial" text-anchor="middle" size="13">是</text></g></g><g id="ProcessOnG1105"><path id="ProcessOnPath1106" d="M333.25 1373.0L303.0 1373.0L303.0 1489.0L317.7639320225002 1489.0" stroke="#323232" stroke-width="2.0" stroke-dasharray="none" fill="none" marker-end="url(#ProcessOnMarker1107)"/><g id="ProcessOnG1109" transform="matrix(1.0,0.0,0.0,1.0,303.0,1415.1319660112501)"><path id="ProcessOnPath1110" d="M0 0H10.0V16.25H0Z" fill="#fff" transform="matrix(1.0,0.0,0.0,1.0,-5.0,0.0)"/><text id="ProcessOnText1111" fill="#323232" font-size="13" x="0.0" y="13.325" font-family="Arial" font-weight="normal" font-style="normal" text-decoration="none" family="Arial" text-anchor="middle" size="13">是</text></g></g><g id="ProcessOnG1112"><path id="ProcessOnPath1113" d="M333.0 1548.0L273.0 1548.0L273.0 1724.0L317.7639320225002 1724.0" stroke="#323232" stroke-width="2.0" stroke-dasharray="none" fill="none" marker-end="url(#ProcessOnMarker1114)"/><g id="ProcessOnG1116" transform="matrix(1.0,0.0,0.0,1.0,273.0,1620.2569660112501)"><path id="ProcessOnPath1117" d="M0 0H10.0V16.25H0Z" fill="#fff" transform="matrix(1.0,0.0,0.0,1.0,-5.0,0.0)"/><text id="ProcessOnText1118" fill="#323232" font-size="13" x="0.0" y="13.325" font-family="Arial" font-weight="normal" font-style="normal" text-decoration="none" family="Arial" text-anchor="middle" size="13">是</text></g></g><g id="ProcessOnG1119"><path id="ProcessOnPath1120" d="M333.0 1608.0L303.0 1608.0L303.0 1713.0L317.7639320225002 1713.0" stroke="#323232" stroke-width="2.0" stroke-dasharray="none" fill="none" marker-end="url(#ProcessOnMarker1121)"/><g id="ProcessOnG1123" transform="matrix(1.0,0.0,0.0,1.0,303.0,1644.7569660112501)"><path id="ProcessOnPath1124" d="M0 0H10.0V16.25H0Z" fill="#fff" transform="matrix(1.0,0.0,0.0,1.0,-5.0,0.0)"/><text id="ProcessOnText1125" fill="#323232" font-size="13" x="0.0" y="13.325" font-family="Arial" font-weight="normal" font-style="normal" text-decoration="none" family="Arial" text-anchor="middle" size="13">是</text></g></g><g id="ProcessOnG1126"><path id="ProcessOnPath1127" d="M475.25 1432.0L528.25 1432.0L528.25 1089.9647238195898L490.3723646723435 1089.9647238195898" stroke="#323232" stroke-width="2.0" stroke-dasharray="none" fill="none" marker-end="url(#ProcessOnMarker1128)"/></g><g id="ProcessOnG1130"><path id="ProcessOnPath1131" d="M475.0 1667.0L553.25 1667.0L553.25 1078.0L490.4860679774998 1078.0" stroke="#323232" stroke-width="2.0" stroke-dasharray="none" fill="none" marker-end="url(#ProcessOnMarker1132)"/></g><g id="ProcessOnG1134"><path id="ProcessOnPath1135" d="M475.0 1724.0L579.0 1724.0L579.0 1066.0L490.2360679774998 1066.0" stroke="#323232" stroke-width="2.0" stroke-dasharray="none" fill="none" marker-end="url(#ProcessOnMarker1136)"/></g><g id="ProcessOnG1138" transform="matrix(1.0,0.0,0.0,1.0,334.5,1765.0)" opacity="1.0"><path id="ProcessOnPath1139" d="M0.0 0.0L142.0 0.0L142.0 32.0L0.0 32.0Z" stroke="#323232" stroke-width="2.0" stroke-dasharray="none" fill="#ffffff"/><g id="ProcessOnG1140" transform="matrix(1.0,0.0,0.0,1.0,10.0,7.875)"><text id="ProcessOnText1141" fill="#323232" font-size="13" x="60.0" y="13.325" font-family="Arial" font-weight="normal" font-style="normal" text-decoration="none" family="Arial" text-anchor="middle" size="13">显示DIGITAL</text></g></g><g id="ProcessOnG1142" transform="matrix(1.0,0.0,0.0,1.0,334.5,1823.0)" opacity="1.0"><path id="ProcessOnPath1143" d="M0.0 0.0L142.0 0.0L142.0 32.0L0.0 32.0Z" stroke="#323232" stroke-width="2.0" stroke-dasharray="none" fill="#ffffff"/><g id="ProcessOnG1144" transform="matrix(1.0,0.0,0.0,1.0,10.0,7.875)"><text id="ProcessOnText1145" fill="#323232" font-size="13" x="60.0" y="13.325" font-family="Arial" font-weight="normal" font-style="normal" text-decoration="none" family="Arial" text-anchor="middle" size="13">CL赋BL</text></g></g><g id="ProcessOnG1146" transform="matrix(1.0,0.0,0.0,1.0,673.0,1897.5)" opacity="1.0"><path id="ProcessOnPath1147" d="M0.0 0.0L176.0 0.0L176.0 32.0L0.0 32.0Z" stroke="#323232" stroke-width="2.0" stroke-dasharray="none" fill="#ffffff"/><g id="ProcessOnG1148" transform="matrix(1.0,0.0,0.0,1.0,10.0,-0.25)"><text id="ProcessOnText1149" fill="#323232" font-size="13" x="77.0" y="13.325" font-family="Arial" font-weight="normal" font-style="normal" text-decoration="none" family="Arial" text-anchor="middle" size="13">显示CL/100, CL=CL%100</text><text id="ProcessOnText1150" fill="#323232" font-size="13" x="77.0" y="29.575" font-family="Arial" font-weight="normal" font-style="normal" text-decoration="none" family="Arial" text-anchor="middle" size="13">(+30H对应的字符)</text></g></g><g id="ProcessOnG1151" transform="matrix(1.0,0.0,0.0,1.0,673.0,1953.5)" opacity="1.0"><path id="ProcessOnPath1152" d="M0.0 0.0L176.0 0.0L176.0 32.0L0.0 32.0Z" stroke="#323232" stroke-width="2.0" stroke-dasharray="none" fill="#ffffff"/><g id="ProcessOnG1153" transform="matrix(1.0,0.0,0.0,1.0,10.0,-0.25)"><text id="ProcessOnText1154" fill="#323232" font-size="13" x="77.0" y="13.325" font-family="Arial" font-weight="normal" font-style="normal" text-decoration="none" family="Arial" text-anchor="middle" size="13">显示CL/10, CL=CL%10</text><text id="ProcessOnText1155" fill="#323232" font-size="13" x="77.0" y="29.575" font-family="Arial" font-weight="normal" font-style="normal" text-decoration="none" family="Arial" text-anchor="middle" size="13">(+30H对应的字符)</text></g></g><g id="ProcessOnG1156" transform="matrix(1.0,0.0,0.0,1.0,673.0,2010.5)" opacity="1.0"><path id="ProcessOnPath1157" d="M0.0 0.0L176.0 0.0L176.0 32.0L0.0 32.0Z" stroke="#323232" stroke-width="2.0" stroke-dasharray="none" fill="#ffffff"/><g id="ProcessOnG1158" transform="matrix(1.0,0.0,0.0,1.0,10.0,-0.25)"><text id="ProcessOnText1159" fill="#323232" font-size="13" x="77.0" y="13.325" font-family="Arial" font-weight="normal" font-style="normal" text-decoration="none" family="Arial" text-anchor="middle" size="13">显示CL</text><text id="ProcessOnText1160" fill="#323232" font-size="13" x="77.0" y="29.575" font-family="Arial" font-weight="normal" font-style="normal" text-decoration="none" family="Arial" text-anchor="middle" size="13">(+30H对应的字符)</text></g></g><g id="ProcessOnG1161" transform="matrix(1.0,0.0,0.0,1.0,334.5,1880.0)" opacity="1.0"><path id="ProcessOnPath1162" d="M0.0 0.0L142.0 0.0L142.0 32.0L0.0 32.0Z" stroke="#323232" stroke-width="2.0" stroke-dasharray="none" fill="#ffffff"/><g id="ProcessOnG1163" transform="matrix(1.0,0.0,0.0,1.0,10.0,7.875)"><text id="ProcessOnText1164" fill="#323232" font-size="13" x="60.0" y="13.325" font-family="Arial" font-weight="normal" font-style="normal" text-decoration="none" family="Arial" text-anchor="middle" size="13">显示LETTER</text></g></g><g id="ProcessOnG1165" transform="matrix(1.0,0.0,0.0,1.0,334.5,1937.0)" opacity="1.0"><path id="ProcessOnPath1166" d="M0.0 0.0L142.0 0.0L142.0 32.0L0.0 32.0Z" stroke="#323232" stroke-width="2.0" stroke-dasharray="none" fill="#ffffff"/><g id="ProcessOnG1167" transform="matrix(1.0,0.0,0.0,1.0,10.0,7.875)"><text id="ProcessOnText1168" fill="#323232" font-size="13" x="60.0" y="13.325" font-family="Arial" font-weight="normal" font-style="normal" text-decoration="none" family="Arial" text-anchor="middle" size="13">CL赋BH</text></g></g><g id="ProcessOnG1169" transform="matrix(1.0,0.0,0.0,1.0,334.5,1993.5)" opacity="1.0"><path id="ProcessOnPath1170" d="M0.0 0.0L142.0 0.0L142.0 32.0L0.0 32.0Z" stroke="#323232" stroke-width="2.0" stroke-dasharray="none" fill="#ffffff"/><g id="ProcessOnG1171" transform="matrix(1.0,0.0,0.0,1.0,10.0,7.875)"><text id="ProcessOnText1172" fill="#323232" font-size="13" x="60.0" y="13.325" font-family="Arial" font-weight="normal" font-style="normal" text-decoration="none" family="Arial" text-anchor="middle" size="13">显示OTHERCHAR</text></g></g><g id="ProcessOnG1173" transform="matrix(1.0,0.0,0.0,1.0,334.5,2049.5)" opacity="1.0"><path id="ProcessOnPath1174" d="M0.0 0.0L142.0 0.0L142.0 32.0L0.0 32.0Z" stroke="#323232" stroke-width="2.0" stroke-dasharray="none" fill="#ffffff"/><g id="ProcessOnG1175" transform="matrix(1.0,0.0,0.0,1.0,10.0,7.875)"><text id="ProcessOnText1176" fill="#323232" font-size="13" x="60.0" y="13.325" font-family="Arial" font-weight="normal" font-style="normal" text-decoration="none" family="Arial" text-anchor="middle" size="13">CL赋CH</text></g></g><g id="ProcessOnG1177" transform="matrix(1.0,0.0,0.0,1.0,636.0,1837.5)" opacity="1.0"><path id="ProcessOnPath1178" d="M0.0 0.0L250.0 0.0L250.0 223.0L0.0 223.0Z" stroke="#323232" stroke-width="2.0" stroke-dasharray="none" fill="none"/><path id="ProcessOnPath1179" d="M0.0 0.0L250.0 0.0L250.0 40.0L0.0 40.0Z" stroke="#323232" stroke-width="2.0" stroke-dasharray="none" fill="#ffffff"/><g id="ProcessOnG1180" transform="matrix(1.0,0.0,0.0,1.0,10.0,10.0)"><text id="ProcessOnText1181" fill="#323232" font-size="16" x="114.0" y="16.4" font-family="Arial" font-weight="normal" font-style="normal" text-decoration="none" family="Arial" text-anchor="middle" size="16">DISP</text></g></g><g id="ProcessOnG1182"><path id="ProcessOnPath1183" d="M761.0 1929.5L761.0 1941.5L761.0 1941.5L761.0 1942.5" stroke="#323232" stroke-width="2.0" stroke-dasharray="none" fill="none" marker-end="url(#ProcessOnMarker1184)"/></g><g id="ProcessOnG1186"><path id="ProcessOnPath1187" d="M761.0 1985.5L761.0 1998.0L761.0 1998.0L761.0 1999.0" stroke="#323232" stroke-width="2.0" stroke-dasharray="none" fill="none" marker-end="url(#ProcessOnMarker1188)"/></g><g id="ProcessOnG1190"><path id="ProcessOnPath1191" d="M404.25 585.5L404.25 597.25L404.25 597.25L404.25 598.25" stroke="#323232" stroke-width="2.0" stroke-dasharray="none" fill="none" marker-end="url(#ProcessOnMarker1192)"/></g><g id="ProcessOnG1194"><path id="ProcessOnPath1195" d="M404.25 641.0L404.25 653.0L404.25 653.0L404.25 654.0" stroke="#323232" stroke-width="2.0" stroke-dasharray="none" fill="none" marker-end="url(#ProcessOnMarker1196)"/></g><g id="ProcessOnG1198"><path id="ProcessOnPath1199" d="M404.25 697.0L404.25 709.0L404.25 709.0L404.25 710.0" stroke="#323232" stroke-width="2.0" stroke-dasharray="none" fill="none" marker-end="url(#ProcessOnMarker1200)"/></g><g id="ProcessOnG1202"><path id="ProcessOnPath1203" d="M404.25 753.0L404.25 765.5L404.25 765.5L404.25 766.5" stroke="#323232" stroke-width="2.0" stroke-dasharray="none" fill="none" marker-end="url(#ProcessOnMarker1204)"/></g><g id="ProcessOnG1206"><path id="ProcessOnPath1207" d="M404.25 810.0L404.25 822.5L404.25 822.5L404.25 823.5" stroke="#323232" stroke-width="2.0" stroke-dasharray="none" fill="none" marker-end="url(#ProcessOnMarker1208)"/></g><g id="ProcessOnG1210"><path id="ProcessOnPath1211" d="M404.25 866.0L404.25 879.0L404.25 879.0L404.25 880.0" stroke="#323232" stroke-width="2.0" stroke-dasharray="none" fill="none" marker-end="url(#ProcessOnMarker1212)"/></g><g id="ProcessOnG1214"><path id="ProcessOnPath1215" d="M404.25 924.0L404.25 936.5L404.25 936.5L404.25 937.5" stroke="#323232" stroke-width="2.0" stroke-dasharray="none" fill="none" marker-end="url(#ProcessOnMarker1216)"/></g><g id="ProcessOnG1218"><path id="ProcessOnPath1219" d="M404.25 981.0L404.25 993.5L404.25 993.5L404.25 994.5" stroke="#323232" stroke-width="2.0" stroke-dasharray="none" fill="none" marker-end="url(#ProcessOnMarker1220)"/></g><g id="ProcessOnG1222"><path id="ProcessOnPath1223" d="M404.25 1038.0L404.25 1050.0L404.25 1050.0L404.25 1051.0" stroke="#323232" stroke-width="2.0" stroke-dasharray="none" fill="none" marker-end="url(#ProcessOnMarker1224)"/></g><g id="ProcessOnG1226"><path id="ProcessOnPath1227" d="M404.25 1094.0L404.25 1106.5L404.25 1106.5L404.25 1107.5" stroke="#323232" stroke-width="2.0" stroke-dasharray="none" fill="none" marker-end="url(#ProcessOnMarker1228)"/></g><g id="ProcessOnG1230"><path id="ProcessOnPath1231" d="M333.25 1137.0L303.25 1137.0L303.25 1196.0L318.0139320225002 1196.0" stroke="#323232" stroke-width="2.0" stroke-dasharray="none" fill="none" marker-end="url(#ProcessOnMarker1232)"/><g id="ProcessOnG1234" transform="matrix(1.0,0.0,0.0,1.0,303.25,1150.7569660112501)"><path id="ProcessOnPath1235" d="M0 0H10.0V16.25H0Z" fill="#fff" transform="matrix(1.0,0.0,0.0,1.0,-5.0,0.0)"/><text id="ProcessOnText1236" fill="#323232" font-size="13" x="0.0" y="13.325" font-family="Arial" font-weight="normal" font-style="normal" text-decoration="none" family="Arial" text-anchor="middle" size="13">否</text></g></g><g id="ProcessOnG1237"><path id="ProcessOnPath1238" d="M404.25 1212.0L404.25 1224.5L404.25 1224.5L404.25 1225.5" stroke="#323232" stroke-width="2.0" stroke-dasharray="none" fill="none" marker-end="url(#ProcessOnMarker1239)"/></g><g id="ProcessOnG1241"><path id="ProcessOnPath1242" d="M404.25 1269.0L404.25 1281.5L404.0 1281.5L404.0 1282.5" stroke="#323232" stroke-width="2.0" stroke-dasharray="none" fill="none" marker-end="url(#ProcessOnMarker1243)"/></g><g id="ProcessOnG1245"><path id="ProcessOnPath1246" d="M475.0 1312.0L505.0 1312.0L505.0 1342.5L404.25 1342.5L404.25 1343.5" stroke="#323232" stroke-width="2.0" stroke-dasharray="none" fill="none" marker-end="url(#ProcessOnMarker1247)"/><g id="ProcessOnG1249" transform="matrix(1.0,0.0,0.0,1.0,484.375,1334.375)"><path id="ProcessOnPath1250" d="M0 0H10.0V16.25H0Z" fill="#fff" transform="matrix(1.0,0.0,0.0,1.0,-5.0,0.0)"/><text id="ProcessOnText1251" fill="#323232" font-size="13" x="0.0" y="13.325" font-family="Arial" font-weight="normal" font-style="normal" text-decoration="none" family="Arial" text-anchor="middle" size="13">否</text></g></g><g id="ProcessOnG1252"><path id="ProcessOnPath1253" d="M475.25 1373.0L505.25 1373.0L505.25 1403.5L404.25 1403.5L404.25 1404.5" stroke="#323232" stroke-width="2.0" stroke-dasharray="none" fill="none" marker-end="url(#ProcessOnMarker1254)"/><g id="ProcessOnG1256" transform="matrix(1.0,0.0,0.0,1.0,484.5,1395.375)"><path id="ProcessOnPath1257" d="M0 0H10.0V16.25H0Z" fill="#fff" transform="matrix(1.0,0.0,0.0,1.0,-5.0,0.0)"/><text id="ProcessOnText1258" fill="#323232" font-size="13" x="0.0" y="13.325" font-family="Arial" font-weight="normal" font-style="normal" text-decoration="none" family="Arial" text-anchor="middle" size="13">否</text></g></g><g id="ProcessOnG1259"><path id="ProcessOnPath1260" d="M404.0 1505.0L404.0 1517.5L404.0 1517.5L404.0 1518.5" stroke="#323232" stroke-width="2.0" stroke-dasharray="none" fill="none" marker-end="url(#ProcessOnMarker1261)"/></g><g id="ProcessOnG1263"><path id="ProcessOnPath1264" d="M475.0 1548.0L505.0 1548.0L505.0 1578.0L404.0 1578.0L404.0 1579.0" stroke="#323232" stroke-width="2.0" stroke-dasharray="none" fill="none" marker-end="url(#ProcessOnMarker1265)"/><g id="ProcessOnG1267" transform="matrix(1.0,0.0,0.0,1.0,484.0,1569.875)"><path id="ProcessOnPath1268" d="M0 0H10.0V16.25H0Z" fill="#fff" transform="matrix(1.0,0.0,0.0,1.0,-5.0,0.0)"/><text id="ProcessOnText1269" fill="#323232" font-size="13" x="0.0" y="13.325" font-family="Arial" font-weight="normal" font-style="normal" text-decoration="none" family="Arial" text-anchor="middle" size="13">否</text></g></g><g id="ProcessOnG1270"><path id="ProcessOnPath1271" d="M475.0 1608.0L505.0 1608.0L505.0 1638.5L404.0 1638.5L404.0 1639.5" stroke="#323232" stroke-width="2.0" stroke-dasharray="none" fill="none" marker-end="url(#ProcessOnMarker1272)"/><g id="ProcessOnG1274" transform="matrix(1.0,0.0,0.0,1.0,484.25,1630.375)"><path id="ProcessOnPath1275" d="M0 0H10.0V16.25H0Z" fill="#fff" transform="matrix(1.0,0.0,0.0,1.0,-5.0,0.0)"/><text id="ProcessOnText1276" fill="#323232" font-size="13" x="0.0" y="13.325" font-family="Arial" font-weight="normal" font-style="normal" text-decoration="none" family="Arial" text-anchor="middle" size="13">否</text></g></g><g id="ProcessOnG1277"><path id="ProcessOnPath1278" d="M405.5 1797.0L405.5 1810.0L405.5 1810.0L405.5 1811.0" stroke="#323232" stroke-width="2.0" stroke-dasharray="none" fill="none" marker-end="url(#ProcessOnMarker1279)"/></g><g id="ProcessOnG1281"><path id="ProcessOnPath1282" d="M476.5 1839.0L606.75 1839.0L606.75 1902.0L657.7639320225002 1902.0" stroke="#ff3333" stroke-width="2.0" stroke-dasharray="none" fill="none" marker-end="url(#ProcessOnMarker1283)"/></g><g id="ProcessOnG1285"><path id="ProcessOnPath1286" d="M476.5 1953.0L579.75 1953.0L579.75 1913.5L657.7639320225002 1913.5" stroke="#3333ff" stroke-width="2.0" stroke-dasharray="none" fill="none" marker-end="url(#ProcessOnMarker1287)"/></g><g id="ProcessOnG1289"><path id="ProcessOnPath1290" d="M476.5 2065.5L606.75 2065.5L606.75 1925.0L657.7639320225002 1925.0" stroke="#cc00cc" stroke-width="2.0" stroke-dasharray="none" fill="none" marker-end="url(#ProcessOnMarker1291)"/></g><g id="ProcessOnG1293"><path id="ProcessOnPath1294" d="M673.0 2019.0L550.75 2019.0L550.75 1896.0L491.7360679774998 1896.0" stroke="#ff3333" stroke-width="2.0" stroke-dasharray="none" fill="none" marker-end="url(#ProcessOnMarker1295)"/></g><g id="ProcessOnG1297"><path id="ProcessOnPath1298" d="M673.0 2034.0L521.75 2034.0L521.75 2009.5L491.7360679774998 2009.5" stroke="#3333ff" stroke-width="2.0" stroke-dasharray="none" fill="none" marker-end="url(#ProcessOnMarker1299)"/></g><g id="ProcessOnG1301" transform="matrix(1.0,0.0,0.0,1.0,334.5,2106.0)" opacity="1.0"><path id="ProcessOnPath1302" d="M10.5 0.0L131.5 0.0C145.5 0.0 145.5 31.5 131.5 31.5L10.5 31.5C-3.5 31.5 -3.5 0.0 10.5 0.0Z" stroke="#323232" stroke-width="2.0" stroke-dasharray="none" fill="#ffffff"/><g id="ProcessOnG1303" transform="matrix(1.0,0.0,0.0,1.0,10.0,7.625)"><text id="ProcessOnText1304" fill="#000000" font-size="13" x="60.0" y="13.325" font-family="Arial" font-weight="normal" font-style="normal" text-decoration="none" family="Arial" text-anchor="middle" size="13">结束</text></g></g><g id="ProcessOnG1305"><path id="ProcessOnPath1306" d="M405.5 1912.0L405.5 1924.5L405.5 1924.5L405.5 1925.5" stroke="#323232" stroke-width="2.0" stroke-dasharray="none" fill="none" marker-end="url(#ProcessOnMarker1307)"/></g><g id="ProcessOnG1309"><path id="ProcessOnPath1310" d="M405.5 2025.5L405.5 2037.5L405.5 2037.5L405.5 2038.5" stroke="#323232" stroke-width="2.0" stroke-dasharray="none" fill="none" marker-end="url(#ProcessOnMarker1311)"/></g><g id="ProcessOnG1313"><path id="ProcessOnPath1314" d="M761.0 2042.5L761.0 2121.75L491.7360679774998 2121.75" stroke="#cc00cc" stroke-width="2.0" stroke-dasharray="none" fill="none" marker-end="url(#ProcessOnMarker1315)"/></g></g></g></svg>